REM DIRINDEX 1\2,1\3,1\4,1\5
REM DIRNAME "folder01","folder02","folder03","folder04","folder05"
TITLE ""
FILE "P1Q_t_1349-1358.mp3" MP3
  TRACK 01 AUDIO
    TITLE "3:cjc173_5018"
    INDEX 01 00:00:00
  TRACK 02 AUDIO
    TITLE "0:"
    INDEX 01 00:01:10
  TRACK 03 AUDIO
    TITLE "4:cjc173_5019"
    INDEX 01 00:01:31
  TRACK 04 AUDIO
    TITLE "0:"
    INDEX 01 00:02:48
  TRACK 05 AUDIO
    TITLE "5:cjc173_5020"
    INDEX 01 00:02:70
  TRACK 06 AUDIO
    TITLE "0:"
    INDEX 01 00:06:68
  TRACK 07 AUDIO
    TITLE "3:cjc173_5021"
    INDEX 01 00:07:38
  TRACK 08 AUDIO
    TITLE "0:"
    INDEX 01 00:08:67
  TRACK 09 AUDIO
    TITLE "4:cjc173_5022"
    INDEX 01 00:09:11
  TRACK 10 AUDIO
    TITLE "0:"
    INDEX 01 00:11:14
  TRACK 11 AUDIO
    TITLE "5:cjc173_5023"
    INDEX 01 00:11:34
  TRACK 12 AUDIO
    TITLE "0:"
    INDEX 01 00:17:28
  TRACK 13 AUDIO
    TITLE "3:cjc173_5024"
    INDEX 01 00:18:04
  TRACK 14 AUDIO
    TITLE "0:"
    INDEX 01 00:19:12
  TRACK 15 AUDIO
    TITLE "4:cjc173_5025"
    INDEX 01 00:19:31
  TRACK 16 AUDIO
    TITLE "0:"
    INDEX 01 00:23:21
  TRACK 17 AUDIO
    TITLE "5:cjc173_5026"
    INDEX 01 00:23:41
  TRACK 18 AUDIO
    TITLE "0:"
    INDEX 01 00:29:02
  TRACK 19 AUDIO
    TITLE "3:cjc173_5027"
    INDEX 01 00:29:47
  TRACK 20 AUDIO
    TITLE "0:"
    INDEX 01 00:30:51
  TRACK 21 AUDIO
    TITLE "4:cjc173_5028"
    INDEX 01 00:31:01
  TRACK 22 AUDIO
    TITLE "0:"
    INDEX 01 00:34:01
  TRACK 23 AUDIO
    TITLE "5:cjc173_5029"
    INDEX 01 00:34:21
  TRACK 24 AUDIO
    TITLE "0:"
    INDEX 01 00:38:54
  TRACK 25 AUDIO
    TITLE "3:cjc173_5030"
    INDEX 01 00:39:26
  TRACK 26 AUDIO
    TITLE "0:"
    INDEX 01 00:40:47
  TRACK 27 AUDIO
    TITLE "4:cjc173_5031"
    INDEX 01 00:40:73
  TRACK 28 AUDIO
    TITLE "0:"
    INDEX 01 00:46:54
  TRACK 29 AUDIO
    TITLE "5:cjc173_5032"
    INDEX 01 00:46:73
  TRACK 30 AUDIO
    TITLE "0:"
    INDEX 01 00:51:57
  TRACK 31 AUDIO
    TITLE "3:cjc173_5033"
    INDEX 01 00:52:29
  TRACK 32 AUDIO
    TITLE "0:"
    INDEX 01 00:53:44
  TRACK 33 AUDIO
    TITLE "4:cjc173_5034"
    INDEX 01 00:53:63
  TRACK 34 AUDIO
    TITLE "0:"
    INDEX 01 00:56:15
  TRACK 35 AUDIO
    TITLE "5:cjc173_5035"
    INDEX 01 00:56:34
  TRACK 36 AUDIO
    TITLE "0:"
    INDEX 01 01:00:46
  TRACK 37 AUDIO
    TITLE "3:cjc173_5036"
    INDEX 01 01:01:18
  TRACK 38 AUDIO
    TITLE "0:"
    INDEX 01 01:02:29
  TRACK 39 AUDIO
    TITLE "4:cjc173_5037"
    INDEX 01 01:02:49
  TRACK 40 AUDIO
    TITLE "0:"
    INDEX 01 01:05:37
  TRACK 41 AUDIO
    TITLE "5:cjc173_5038"
    INDEX 01 01:05:57
  TRACK 42 AUDIO
    TITLE "0:"
    INDEX 01 01:10:31
  TRACK 43 AUDIO
    TITLE "3:cjc173_5039"
    INDEX 01 01:10:74
  TRACK 44 AUDIO
    TITLE "0:"
    INDEX 01 01:12:04
  TRACK 45 AUDIO
    TITLE "4:cjc173_5040"
    INDEX 01 01:12:25
  TRACK 46 AUDIO
    TITLE "0:"
    INDEX 01 01:16:29
  TRACK 47 AUDIO
    TITLE "5:cjc173_5041"
    INDEX 01 01:16:49
  TRACK 48 AUDIO
    TITLE "0:"
    INDEX 01 01:21:36
  TRACK 49 AUDIO
    TITLE "3:cjc173_5042"
    INDEX 01 01:22:06
  TRACK 50 AUDIO
    TITLE "0:"
    INDEX 01 01:23:35
  TRACK 51 AUDIO
    TITLE "4:cjc173_5043"
    INDEX 01 01:23:57
  TRACK 52 AUDIO
    TITLE "0:"
    INDEX 01 01:25:30
  TRACK 53 AUDIO
    TITLE "5:cjc173_5044"
    INDEX 01 01:25:50
  TRACK 54 AUDIO
    TITLE "0:"
    INDEX 01 01:30:66
  TRACK 55 AUDIO
    TITLE "3:cjc173_5045"
    INDEX 01 01:31:37
  TRACK 56 AUDIO
    TITLE "0:"
    INDEX 01 01:32:40
  TRACK 57 AUDIO
    TITLE "4:cjc173_5046"
    INDEX 01 01:32:61
  TRACK 58 AUDIO
    TITLE "0:"
    INDEX 01 01:34:60
  TRACK 59 AUDIO
    TITLE "5:cjc173_5047"
    INDEX 01 01:35:05
  TRACK 60 AUDIO
    TITLE "0:"
    INDEX 01 01:38:48
